<?xml version="1.0" standalone="no"?>
<!DOCTYPE svg PUBLIC "-//W3C//DTD SVG 20010904//EN"
 "http://www.w3.org/TR/2001/REC-SVG-20010904/DTD/svg10.dtd">
<svg version="1.0" xmlns="http://www.w3.org/2000/svg"
 width="1280.000000pt" height="640.000000pt" viewBox="0 0 1280.000000 640.000000"
 preserveAspectRatio="xMidYMid meet">
<metadata>
Created by potrace 1.15, written by Peter Selinger 2001-2017
</metadata>
<g transform="translate(0.000000,640.000000) scale(0.100000,-0.100000)"
fill="#F8F8F8" stroke="none">
<path d="M12110 6111 c-64 -35 -79 -59 -86 -141 -4 -44 -16 -96 -29 -127 -43
-96 -248 -288 -460 -430 -177 -119 -632 -376 -648 -366 -13 8 -1 233 18 322
38 180 112 303 216 357 16 8 80 22 141 30 109 15 168 34 168 54 0 22 -54 42
-142 52 -142 16 -156 22 -184 92 -28 69 -49 96 -76 96 -23 0 -26 -7 -37 -109
-11 -105 -61 -211 -135 -288 -46 -47 -57 -53 -92 -53 -100 0 -238 66 -341 164
-61 58 -66 65 -71 114 -6 68 -24 79 -80 51 -54 -27 -132 -96 -132 -117 0 -10
37 -42 85 -75 98 -67 129 -103 146 -170 6 -26 20 -52 30 -57 9 -6 49 -9 87 -9
78 1 110 -12 158 -63 47 -49 63 -88 75 -179 22 -160 -17 -354 -140 -707 -33
-95 -68 -187 -77 -204 -9 -18 -60 -77 -114 -132 -95 -98 -128 -142 -116 -153
3 -4 -7 -14 -23 -24 -57 -35 -240 -278 -454 -604 -148 -226 -169 -268 -165
-330 2 -46 -1 -55 -46 -115 -51 -69 -96 -153 -96 -182 0 -14 -9 -18 -40 -18
-82 0 -205 -54 -460 -202 -80 -46 -183 -103 -230 -125 -120 -58 -178 -100
-199 -142 -16 -31 -29 -39 -87 -59 -65 -23 -165 -79 -178 -101 -4 -6 -21 -5
-49 5 -83 30 -317 19 -667 -32 -309 -45 -445 -78 -508 -124 -32 -23 -42 -26
-53 -15 -17 15 -136 45 -183 45 -22 0 -38 -6 -44 -16 -8 -14 -13 -11 -37 20
-55 72 -149 109 -395 156 -198 38 -435 67 -621 76 -123 6 -151 4 -178 -9 -31
-15 -32 -15 -41 7 -10 28 -17 31 -111 46 -72 12 -75 13 -90 50 -27 61 -159
142 -351 214 -262 98 -422 131 -751 156 -146 11 -199 7 -218 -16 -9 -12 -17
-9 -43 14 -32 28 -59 40 -326 143 -258 99 -408 187 -474 278 -81 111 -123 244
-112 356 13 129 81 439 156 709 45 163 62 211 88 239 9 11 130 104 267 207
232 174 315 245 315 271 0 6 -8 8 -17 5 -10 -2 -46 -8 -80 -11 -50 -6 -63 -4
-63 7 0 7 34 83 75 168 41 85 75 159 75 163 0 29 -81 -62 -205 -228 -141 -189
-194 -242 -228 -229 -21 8 -28 28 -34 109 -7 89 6 187 67 499 70 354 92 487
85 515 -6 24 -6 24 -26 5 -11 -11 -44 -89 -74 -173 -39 -111 -65 -167 -94
-206 -53 -70 -57 -82 -65 -190 -28 -372 -60 -592 -131 -878 -39 -158 -228
-728 -239 -724 -22 7 -180 204 -202 252 -36 80 -39 115 -14 192 40 123 90 233
266 596 96 197 174 367 174 377 0 15 -7 20 -29 20 -24 0 -34 8 -56 46 -15 25
-28 44 -30 42 -1 -2 -8 -42 -14 -89 -16 -121 -36 -172 -91 -232 -26 -29 -57
-71 -68 -94 -12 -23 -27 -45 -33 -49 -14 -8 -10 23 17 144 22 98 16 115 -54
169 -44 33 -112 58 -122 45 -4 -4 -1 -56 6 -117 23 -210 37 -460 30 -529 -6
-53 -13 -74 -32 -93 -32 -32 -46 -21 -87 65 -49 103 -95 115 -117 30 -14 -50
-7 -110 30 -253 29 -115 68 -217 190 -495 100 -229 124 -320 124 -485 1 -115
-1 -135 -21 -171 -69 -129 -205 -115 -425 43 -169 121 -306 279 -393 453 -76
152 -88 198 -93 377 -8 289 28 377 297 733 56 74 100 141 99 149 -7 33 -31 17
-120 -74 -97 -101 -147 -135 -198 -135 -43 0 -57 32 -41 97 15 60 61 137 173
285 164 218 177 250 110 268 -39 10 -64 31 -75 63 -14 39 -43 17 -112 -84 -37
-55 -89 -123 -115 -152 -45 -49 -49 -51 -108 -55 -95 -7 -92 5 -92 -337 0
-456 -27 -595 -103 -535 -31 25 -96 150 -136 263 -86 247 -90 393 -21 844 37
240 38 315 5 408 -13 39 -25 77 -25 86 0 22 -28 45 -39 33 -5 -5 -16 -121 -26
-257 -18 -278 -28 -326 -87 -441 -54 -102 -113 -166 -155 -166 -17 0 -35 6
-41 13 -22 26 -35 147 -35 312 0 190 17 337 63 539 17 72 30 142 30 156 0 30
-17 50 -42 50 -10 0 -30 7 -43 16 -31 20 -38 15 -60 -43 -10 -26 -29 -70 -43
-98 -24 -47 -26 -63 -33 -251 -7 -206 -18 -286 -48 -356 l-17 -40 -94 133
c-95 134 -186 239 -208 239 -22 0 -12 -48 22 -114 48 -93 132 -217 367 -551
361 -510 393 -567 368 -642 -14 -43 -35 -48 -176 -47 -100 1 -119 4 -167 28
-97 48 -204 169 -326 370 -39 65 -90 146 -112 180 -114 169 -415 523 -470 552
-35 18 -38 18 -38 -7 0 -28 58 -108 253 -352 203 -255 247 -319 247 -361 0
-28 -5 -36 -30 -46 -34 -14 -68 -10 -247 30 -83 19 -105 21 -117 11 -12 -11
-13 -17 -4 -35 22 -41 83 -75 233 -131 139 -52 196 -84 300 -171 154 -130 262
-183 447 -222 53 -12 112 -28 130 -38 79 -40 247 -241 378 -453 187 -301 292
-652 261 -866 -12 -81 -62 -188 -103 -218 -35 -26 -58 -17 -180 75 -56 42
-100 68 -112 66 -15 -2 -24 -18 -36 -58 -24 -83 -48 -81 -270 17 -184 82 -253
103 -329 103 l-66 0 30 -24 c17 -14 93 -61 170 -105 77 -44 155 -93 174 -109
l34 -28 -41 -17 c-146 -58 -512 -71 -616 -22 -53 25 -129 103 -159 162 -73
144 -94 248 -107 538 -6 132 -13 291 -16 353 l-6 114 -32 19 c-17 10 -34 19
-38 19 -42 0 -81 -261 -94 -635 -8 -203 3 -321 42 -480 25 -99 97 -323 116
-359 12 -22 31 -20 223 26 134 31 297 59 304 52 13 -13 -110 -217 -230 -381
-100 -137 -120 -177 -97 -199 12 -13 19 -12 48 8 18 13 72 66 118 118 291 325
380 407 517 471 129 60 283 75 378 35 74 -30 225 -187 271 -281 49 -101 28
-219 -52 -285 -63 -52 -140 -86 -487 -215 -349 -130 -711 -273 -778 -306 -24
-13 -37 -26 -37 -40 0 -18 5 -20 58 -17 52 3 57 1 60 -18 2 -12 -17 -77 -42
-144 -40 -106 -46 -131 -46 -200 0 -85 19 -127 52 -115 9 4 70 84 134 178 243
356 333 477 355 477 24 0 -3 -121 -96 -430 -80 -264 -82 -310 -16 -310 43 0
67 36 96 140 91 329 208 544 345 638 96 65 225 88 400 72 126 -11 146 -17 201
-67 l41 -38 -6 -76 c-14 -165 -74 -330 -211 -576 -47 -84 -85 -154 -85 -157 0
-3 21 -12 48 -19 59 -17 62 -32 28 -127 -35 -95 -34 -123 4 -150 38 -27 77
-23 102 10 10 14 31 88 49 169 50 234 127 441 187 504 l27 28 47 -53 c39 -43
49 -50 58 -38 6 10 7 118 4 300 -5 198 -3 294 5 313 19 50 65 61 251 61 153 1
168 -1 200 -21 74 -46 102 -93 180 -309 122 -334 141 -370 207 -389 48 -14 78
-34 188 -125 133 -110 152 -117 215 -85 18 9 80 19 160 24 73 5 134 12 136 14
3 2 -80 67 -183 143 -425 314 -544 425 -618 578 -51 106 -68 165 -63 226 2 37
8 47 29 57 64 31 174 -16 506 -213 105 -63 198 -114 206 -114 25 0 28 15 12
53 -13 32 -13 37 6 61 11 14 29 26 39 26 22 0 41 22 32 37 -10 15 -98 69 -222
137 -135 73 -232 145 -266 196 -35 52 -44 133 -20 178 20 38 122 90 296 150
166 57 283 107 384 164 86 48 89 49 102 30 38 -55 216 -154 379 -212 210 -74
334 -99 520 -107 176 -7 264 1 307 30 l32 22 84 -33 c47 -19 100 -34 118 -35
26 -1 34 -5 34 -19 0 -11 21 -41 46 -68 36 -38 75 -64 168 -110 158 -78 249
-107 410 -131 319 -47 675 -31 740 34 19 19 31 22 89 19 37 -2 76 2 87 8 17 9
25 5 52 -25 182 -208 614 -242 1065 -84 182 64 286 133 300 199 4 24 11 28 52
34 25 3 61 15 79 26 30 19 34 19 57 4 22 -14 32 -14 124 5 187 38 355 106 497
201 114 77 290 210 353 266 58 52 111 126 111 156 0 13 8 18 28 18 44 0 73 40
101 143 l16 59 45 2 c84 3 176 88 365 336 230 303 395 579 395 661 0 25 7 46
19 58 35 35 44 95 37 247 -8 163 -7 165 79 172 86 7 122 -4 177 -56 56 -52 91
-108 107 -168 6 -22 17 -117 25 -212 8 -94 20 -180 26 -191 13 -25 42 -27 61
-5 18 21 22 158 12 357 -4 86 -6 157 -3 157 7 -1 90 -103 122 -152 24 -35 28
-51 28 -112 0 -97 14 -144 46 -152 14 -4 31 -1 40 7 38 32 -18 257 -94 381
-21 35 -53 86 -70 113 -16 28 -33 60 -37 72 -10 36 31 47 175 47 104 0 136 -4
190 -23 180 -63 402 -202 535 -335 115 -115 138 -161 137 -270 -1 -114 -33
-175 -162 -302 -55 -54 -103 -107 -106 -117 -9 -27 14 -47 54 -47 32 0 43 8
87 56 118 133 152 164 177 164 37 0 45 -15 63 -119 18 -104 23 -114 112 -223
83 -100 154 -153 204 -152 53 2 134 43 134 69 0 20 -1 21 -188 84 -49 17 -103
64 -126 110 -24 46 -54 154 -86 311 -50 239 -70 291 -180 459 -36 54 -68 114
-71 132 -11 57 -22 69 -59 69 -19 0 -35 5 -35 11 0 18 62 2 250 -66 257 -92
306 -107 361 -109 39 -1 54 3 65 18 18 26 6 40 -65 76 -96 48 -682 254 -812
285 -35 8 -118 22 -184 31 -149 19 -221 38 -235 63 -8 16 -4 23 24 40 18 12
76 37 127 56 112 41 139 66 139 130 0 63 26 86 140 125 211 73 297 142 276
224 -13 54 -45 43 -142 -47 -77 -71 -131 -107 -160 -107 -22 0 -24 4 -24 56 0
113 -38 125 -98 32 -50 -79 -64 -92 -187 -168 -115 -71 -166 -113 -323 -263
-136 -130 -171 -153 -242 -167 -62 -12 -150 -4 -177 15 -16 12 -16 18 -5 62 7
26 42 109 79 183 60 122 75 143 148 215 69 69 124 107 389 270 452 279 442
274 741 381 173 61 247 100 243 128 -5 32 -51 31 -159 -3 -111 -36 -179 -48
-179 -33 0 6 41 47 90 93 98 89 113 116 87 162 -22 38 -22 47 10 112 21 43 25
60 17 73 -16 25 -90 26 -134 3z"/>
</g>
</svg>
